<mxfile host="app.diagrams.net" modified="2024-02-15T07:13:00.663Z" agent="Mozilla/5.0 (Macintosh; Intel Mac OS X 10_15_7) AppleWebKit/537.36 (KHTML, like Gecko) Chrome/121.0.0.0 Safari/537.36" etag="HPvRRYtnJcwJmvWV95KL" version="23.1.1" type="device">
  <diagram name="Page-1" id="FEhSh1u80F-HV4fbtNav">
    <mxGraphModel dx="1511" dy="780" grid="1" gridSize="10" guides="1" tooltips="1" connect="1" arrows="1" fold="1" page="1" pageScale="1" pageWidth="850" pageHeight="1100" math="0" shadow="0">
      <root>
        <mxCell id="0" />
        <mxCell id="1" parent="0" />
        <mxCell id="isr7hQU4DGWvUtx6H7Ej-21" value="" style="rounded=1;whiteSpace=wrap;html=1;strokeColor=default;" vertex="1" parent="1">
          <mxGeometry x="240" y="80" width="400" height="520" as="geometry" />
        </mxCell>
        <mxCell id="isr7hQU4DGWvUtx6H7Ej-6" value="&lt;font face=&quot;Courier New&quot;&gt;&lt;b&gt;type&lt;/b&gt;&lt;/font&gt; metaclass" style="rounded=1;whiteSpace=wrap;html=1;" vertex="1" parent="1">
          <mxGeometry x="390.12" y="170" width="120" height="60" as="geometry" />
        </mxCell>
        <mxCell id="isr7hQU4DGWvUtx6H7Ej-7" value="class Foo" style="rounded=1;whiteSpace=wrap;html=1;" vertex="1" parent="1">
          <mxGeometry x="390.12" y="330" width="120" height="60" as="geometry" />
        </mxCell>
        <mxCell id="isr7hQU4DGWvUtx6H7Ej-8" value="foo" style="rounded=1;whiteSpace=wrap;html=1;" vertex="1" parent="1">
          <mxGeometry x="390.12" y="490" width="120" height="60" as="geometry" />
        </mxCell>
        <mxCell id="isr7hQU4DGWvUtx6H7Ej-9" value="" style="endArrow=classic;html=1;rounded=0;entryX=0.5;entryY=1;entryDx=0;entryDy=0;exitX=0.5;exitY=0;exitDx=0;exitDy=0;" edge="1" parent="1" source="isr7hQU4DGWvUtx6H7Ej-7" target="isr7hQU4DGWvUtx6H7Ej-6">
          <mxGeometry width="50" height="50" relative="1" as="geometry">
            <mxPoint x="810.12" y="460" as="sourcePoint" />
            <mxPoint x="860.12" y="410" as="targetPoint" />
          </mxGeometry>
        </mxCell>
        <mxCell id="isr7hQU4DGWvUtx6H7Ej-10" value="is an instance of" style="edgeLabel;html=1;align=center;verticalAlign=middle;resizable=0;points=[];" vertex="1" connectable="0" parent="isr7hQU4DGWvUtx6H7Ej-9">
          <mxGeometry x="-0.04" relative="1" as="geometry">
            <mxPoint as="offset" />
          </mxGeometry>
        </mxCell>
        <mxCell id="isr7hQU4DGWvUtx6H7Ej-11" value="" style="endArrow=classic;html=1;rounded=0;entryX=0.5;entryY=1;entryDx=0;entryDy=0;" edge="1" parent="1" source="isr7hQU4DGWvUtx6H7Ej-8" target="isr7hQU4DGWvUtx6H7Ej-7">
          <mxGeometry width="50" height="50" relative="1" as="geometry">
            <mxPoint x="810.12" y="460" as="sourcePoint" />
            <mxPoint x="860.12" y="410" as="targetPoint" />
          </mxGeometry>
        </mxCell>
        <mxCell id="isr7hQU4DGWvUtx6H7Ej-12" value="is an instance of" style="edgeLabel;html=1;align=center;verticalAlign=middle;resizable=0;points=[];" vertex="1" connectable="0" parent="isr7hQU4DGWvUtx6H7Ej-11">
          <mxGeometry x="-0.12" relative="1" as="geometry">
            <mxPoint y="-4" as="offset" />
          </mxGeometry>
        </mxCell>
        <mxCell id="isr7hQU4DGWvUtx6H7Ej-14" value="" style="endArrow=classic;html=1;rounded=0;exitX=0.5;exitY=0;exitDx=0;exitDy=0;edgeStyle=orthogonalEdgeStyle;elbow=vertical;jumpStyle=sharp;entryX=0;entryY=0.5;entryDx=0;entryDy=0;curved=1;" edge="1" parent="1" source="isr7hQU4DGWvUtx6H7Ej-6" target="isr7hQU4DGWvUtx6H7Ej-6">
          <mxGeometry width="50" height="50" relative="1" as="geometry">
            <mxPoint x="140" y="160" as="sourcePoint" />
            <mxPoint x="310" y="200" as="targetPoint" />
            <Array as="points">
              <mxPoint x="320" y="80" />
            </Array>
          </mxGeometry>
        </mxCell>
        <mxCell id="isr7hQU4DGWvUtx6H7Ej-16" value="is an instance of" style="edgeLabel;html=1;align=center;verticalAlign=middle;resizable=0;points=[];" vertex="1" connectable="0" parent="isr7hQU4DGWvUtx6H7Ej-14">
          <mxGeometry x="0.5383" y="14" relative="1" as="geometry">
            <mxPoint x="-12" y="17" as="offset" />
          </mxGeometry>
        </mxCell>
        <mxCell id="DEhYFJNkx9m5mMiBCJtQ-1" value="" style="rounded=1;whiteSpace=wrap;html=1;strokeColor=default;" vertex="1" parent="1">
          <mxGeometry x="200" y="700" width="680" height="670" as="geometry" />
        </mxCell>
        <mxCell id="DEhYFJNkx9m5mMiBCJtQ-2" value="&lt;font face=&quot;Courier New&quot;&gt;&lt;b&gt;type&lt;/b&gt;&lt;/font&gt; metaclass" style="rounded=1;whiteSpace=wrap;html=1;fillColor=#008a00;strokeColor=#005700;fontColor=#ffffff;" vertex="1" parent="1">
          <mxGeometry x="390.12" y="770" width="120" height="60" as="geometry" />
        </mxCell>
        <mxCell id="DEhYFJNkx9m5mMiBCJtQ-3" value="Foo" style="rounded=1;whiteSpace=wrap;html=1;fillColor=#fff2cc;strokeColor=#d6b656;" vertex="1" parent="1">
          <mxGeometry x="390.12" y="950" width="120" height="60" as="geometry" />
        </mxCell>
        <mxCell id="DEhYFJNkx9m5mMiBCJtQ-4" value="foo" style="rounded=1;whiteSpace=wrap;html=1;fillColor=#dae8fc;strokeColor=#6c8ebf;" vertex="1" parent="1">
          <mxGeometry x="390.12" y="1150" width="120" height="60" as="geometry" />
        </mxCell>
        <mxCell id="DEhYFJNkx9m5mMiBCJtQ-5" value="" style="endArrow=classic;html=1;rounded=0;entryX=0.5;entryY=1;entryDx=0;entryDy=0;exitX=0.5;exitY=0;exitDx=0;exitDy=0;" edge="1" parent="1" source="DEhYFJNkx9m5mMiBCJtQ-3" target="DEhYFJNkx9m5mMiBCJtQ-2">
          <mxGeometry width="50" height="50" relative="1" as="geometry">
            <mxPoint x="810.12" y="1060" as="sourcePoint" />
            <mxPoint x="860.12" y="1010" as="targetPoint" />
          </mxGeometry>
        </mxCell>
        <mxCell id="DEhYFJNkx9m5mMiBCJtQ-6" value="is an instance of" style="edgeLabel;html=1;align=center;verticalAlign=middle;resizable=0;points=[];" vertex="1" connectable="0" parent="DEhYFJNkx9m5mMiBCJtQ-5">
          <mxGeometry x="-0.04" relative="1" as="geometry">
            <mxPoint y="19" as="offset" />
          </mxGeometry>
        </mxCell>
        <mxCell id="DEhYFJNkx9m5mMiBCJtQ-7" value="" style="endArrow=classic;html=1;rounded=0;entryX=0.5;entryY=1;entryDx=0;entryDy=0;" edge="1" parent="1" source="DEhYFJNkx9m5mMiBCJtQ-4" target="DEhYFJNkx9m5mMiBCJtQ-3">
          <mxGeometry width="50" height="50" relative="1" as="geometry">
            <mxPoint x="810.12" y="1080" as="sourcePoint" />
            <mxPoint x="860.12" y="1030" as="targetPoint" />
          </mxGeometry>
        </mxCell>
        <mxCell id="DEhYFJNkx9m5mMiBCJtQ-8" value="is an instance of" style="edgeLabel;html=1;align=center;verticalAlign=middle;resizable=0;points=[];" vertex="1" connectable="0" parent="DEhYFJNkx9m5mMiBCJtQ-7">
          <mxGeometry x="-0.12" relative="1" as="geometry">
            <mxPoint y="-4" as="offset" />
          </mxGeometry>
        </mxCell>
        <mxCell id="DEhYFJNkx9m5mMiBCJtQ-9" value="" style="endArrow=classic;html=1;rounded=0;exitX=0.5;exitY=0;exitDx=0;exitDy=0;edgeStyle=orthogonalEdgeStyle;elbow=vertical;jumpStyle=sharp;entryX=0;entryY=0.5;entryDx=0;entryDy=0;curved=1;" edge="1" parent="1" source="DEhYFJNkx9m5mMiBCJtQ-2" target="DEhYFJNkx9m5mMiBCJtQ-2">
          <mxGeometry width="50" height="50" relative="1" as="geometry">
            <mxPoint x="140" y="760" as="sourcePoint" />
            <mxPoint x="310" y="800" as="targetPoint" />
            <Array as="points">
              <mxPoint x="320" y="680" />
            </Array>
          </mxGeometry>
        </mxCell>
        <mxCell id="DEhYFJNkx9m5mMiBCJtQ-10" value="is an instance of" style="edgeLabel;html=1;align=center;verticalAlign=middle;resizable=0;points=[];" vertex="1" connectable="0" parent="DEhYFJNkx9m5mMiBCJtQ-9">
          <mxGeometry x="0.5383" y="14" relative="1" as="geometry">
            <mxPoint x="-12" y="17" as="offset" />
          </mxGeometry>
        </mxCell>
        <mxCell id="DEhYFJNkx9m5mMiBCJtQ-11" value="&lt;font face=&quot;Courier New&quot;&gt;&lt;b&gt;Meta&lt;/b&gt;&lt;/font&gt;" style="rounded=1;whiteSpace=wrap;html=1;fillColor=#008a00;strokeColor=#005700;fontColor=#ffffff;" vertex="1" parent="1">
          <mxGeometry x="580" y="850" width="120" height="60" as="geometry" />
        </mxCell>
        <mxCell id="DEhYFJNkx9m5mMiBCJtQ-12" value="" style="endArrow=block;html=1;rounded=0;entryX=1;entryY=0.5;entryDx=0;entryDy=0;exitX=0.5;exitY=0;exitDx=0;exitDy=0;endFill=0;edgeStyle=orthogonalEdgeStyle;strokeColor=#CC0000;" edge="1" parent="1" source="DEhYFJNkx9m5mMiBCJtQ-11" target="DEhYFJNkx9m5mMiBCJtQ-2">
          <mxGeometry width="50" height="50" relative="1" as="geometry">
            <mxPoint x="510" y="950" as="sourcePoint" />
            <mxPoint x="560" y="900" as="targetPoint" />
          </mxGeometry>
        </mxCell>
        <mxCell id="DEhYFJNkx9m5mMiBCJtQ-13" value="&lt;font color=&quot;#cc0000&quot;&gt;继承&lt;/font&gt;" style="edgeLabel;html=1;align=center;verticalAlign=middle;resizable=0;points=[];" vertex="1" connectable="0" parent="DEhYFJNkx9m5mMiBCJtQ-12">
          <mxGeometry x="-0.6887" y="-1" relative="1" as="geometry">
            <mxPoint as="offset" />
          </mxGeometry>
        </mxCell>
        <mxCell id="DEhYFJNkx9m5mMiBCJtQ-14" value="Bar" style="rounded=1;whiteSpace=wrap;html=1;fillColor=#fff2cc;strokeColor=#d6b656;" vertex="1" parent="1">
          <mxGeometry x="580" y="1030" width="120" height="60" as="geometry" />
        </mxCell>
        <mxCell id="DEhYFJNkx9m5mMiBCJtQ-15" value="" style="endArrow=block;html=1;rounded=0;entryX=1;entryY=0.5;entryDx=0;entryDy=0;exitX=0.5;exitY=0;exitDx=0;exitDy=0;endFill=0;edgeStyle=orthogonalEdgeStyle;strokeColor=#CC0000;" edge="1" parent="1" source="DEhYFJNkx9m5mMiBCJtQ-14" target="DEhYFJNkx9m5mMiBCJtQ-3">
          <mxGeometry width="50" height="50" relative="1" as="geometry">
            <mxPoint x="650" y="880" as="sourcePoint" />
            <mxPoint x="520" y="830" as="targetPoint" />
          </mxGeometry>
        </mxCell>
        <mxCell id="DEhYFJNkx9m5mMiBCJtQ-16" value="&lt;font color=&quot;#cc0000&quot;&gt;继承&lt;/font&gt;" style="edgeLabel;html=1;align=center;verticalAlign=middle;resizable=0;points=[];" vertex="1" connectable="0" parent="DEhYFJNkx9m5mMiBCJtQ-15">
          <mxGeometry x="-0.6887" y="-1" relative="1" as="geometry">
            <mxPoint as="offset" />
          </mxGeometry>
        </mxCell>
        <mxCell id="DEhYFJNkx9m5mMiBCJtQ-17" value="" style="endArrow=classic;html=1;rounded=0;entryX=0.75;entryY=1;entryDx=0;entryDy=0;exitX=0;exitY=0.5;exitDx=0;exitDy=0;edgeStyle=orthogonalEdgeStyle;" edge="1" parent="1" source="DEhYFJNkx9m5mMiBCJtQ-11" target="DEhYFJNkx9m5mMiBCJtQ-2">
          <mxGeometry width="50" height="50" relative="1" as="geometry">
            <mxPoint x="460" y="1040" as="sourcePoint" />
            <mxPoint x="460" y="840" as="targetPoint" />
          </mxGeometry>
        </mxCell>
        <mxCell id="DEhYFJNkx9m5mMiBCJtQ-18" value="is an instance of" style="edgeLabel;html=1;align=center;verticalAlign=middle;resizable=0;points=[];" vertex="1" connectable="0" parent="DEhYFJNkx9m5mMiBCJtQ-17">
          <mxGeometry x="-0.04" relative="1" as="geometry">
            <mxPoint x="-8" y="-20" as="offset" />
          </mxGeometry>
        </mxCell>
        <mxCell id="DEhYFJNkx9m5mMiBCJtQ-19" value="" style="endArrow=classic;html=1;rounded=0;entryX=0.75;entryY=1;entryDx=0;entryDy=0;exitX=0.75;exitY=0;exitDx=0;exitDy=0;" edge="1" parent="1" source="DEhYFJNkx9m5mMiBCJtQ-14" target="DEhYFJNkx9m5mMiBCJtQ-11">
          <mxGeometry width="50" height="50" relative="1" as="geometry">
            <mxPoint x="460" y="1120" as="sourcePoint" />
            <mxPoint x="460" y="1020" as="targetPoint" />
          </mxGeometry>
        </mxCell>
        <mxCell id="DEhYFJNkx9m5mMiBCJtQ-20" value="is an instance of" style="edgeLabel;html=1;align=center;verticalAlign=middle;resizable=0;points=[];" vertex="1" connectable="0" parent="DEhYFJNkx9m5mMiBCJtQ-19">
          <mxGeometry x="-0.12" relative="1" as="geometry">
            <mxPoint y="-4" as="offset" />
          </mxGeometry>
        </mxCell>
        <mxCell id="DEhYFJNkx9m5mMiBCJtQ-21" value="bar" style="rounded=1;whiteSpace=wrap;html=1;fillColor=#dae8fc;strokeColor=#6c8ebf;" vertex="1" parent="1">
          <mxGeometry x="580" y="1150" width="120" height="60" as="geometry" />
        </mxCell>
        <mxCell id="DEhYFJNkx9m5mMiBCJtQ-22" value="" style="endArrow=classic;html=1;rounded=0;entryX=0.5;entryY=1;entryDx=0;entryDy=0;exitX=0.5;exitY=0;exitDx=0;exitDy=0;" edge="1" parent="1" source="DEhYFJNkx9m5mMiBCJtQ-21" target="DEhYFJNkx9m5mMiBCJtQ-14">
          <mxGeometry width="50" height="50" relative="1" as="geometry">
            <mxPoint x="460" y="1160" as="sourcePoint" />
            <mxPoint x="460" y="1020" as="targetPoint" />
          </mxGeometry>
        </mxCell>
        <mxCell id="DEhYFJNkx9m5mMiBCJtQ-23" value="is an instance of" style="edgeLabel;html=1;align=center;verticalAlign=middle;resizable=0;points=[];" vertex="1" connectable="0" parent="DEhYFJNkx9m5mMiBCJtQ-22">
          <mxGeometry x="-0.12" relative="1" as="geometry">
            <mxPoint y="-4" as="offset" />
          </mxGeometry>
        </mxCell>
        <mxCell id="DEhYFJNkx9m5mMiBCJtQ-28" value="" style="endArrow=classic;html=1;rounded=0;" edge="1" parent="1">
          <mxGeometry width="50" height="50" relative="1" as="geometry">
            <mxPoint x="560" y="1270" as="sourcePoint" />
            <mxPoint x="390" y="1270" as="targetPoint" />
          </mxGeometry>
        </mxCell>
        <mxCell id="DEhYFJNkx9m5mMiBCJtQ-29" value="is an instance of" style="edgeLabel;html=1;align=center;verticalAlign=middle;resizable=0;points=[];" vertex="1" connectable="0" parent="DEhYFJNkx9m5mMiBCJtQ-28">
          <mxGeometry x="0.0364" relative="1" as="geometry">
            <mxPoint y="-1" as="offset" />
          </mxGeometry>
        </mxCell>
        <mxCell id="DEhYFJNkx9m5mMiBCJtQ-30" value="object-class的从属关系" style="text;html=1;strokeColor=none;fillColor=none;align=left;verticalAlign=middle;whiteSpace=wrap;rounded=0;" vertex="1" parent="1">
          <mxGeometry x="570" y="1254" width="130" height="30" as="geometry" />
        </mxCell>
        <mxCell id="DEhYFJNkx9m5mMiBCJtQ-31" value="" style="endArrow=block;html=1;rounded=0;strokeColor=#CC0000;endFill=0;" edge="1" parent="1">
          <mxGeometry width="50" height="50" relative="1" as="geometry">
            <mxPoint x="560.12" y="1310" as="sourcePoint" />
            <mxPoint x="390.12" y="1310" as="targetPoint" />
          </mxGeometry>
        </mxCell>
        <mxCell id="DEhYFJNkx9m5mMiBCJtQ-32" value="&lt;font color=&quot;#cc0000&quot;&gt;继承&lt;/font&gt;" style="edgeLabel;html=1;align=center;verticalAlign=middle;resizable=0;points=[];" vertex="1" connectable="0" parent="DEhYFJNkx9m5mMiBCJtQ-31">
          <mxGeometry x="0.0364" relative="1" as="geometry">
            <mxPoint y="-1" as="offset" />
          </mxGeometry>
        </mxCell>
        <mxCell id="DEhYFJNkx9m5mMiBCJtQ-34" value="&lt;font color=&quot;#cc0000&quot;&gt;class-class的继承关系&lt;/font&gt;" style="text;html=1;strokeColor=none;fillColor=none;align=left;verticalAlign=middle;whiteSpace=wrap;rounded=0;" vertex="1" parent="1">
          <mxGeometry x="569" y="1296" width="141" height="30" as="geometry" />
        </mxCell>
        <mxCell id="DEhYFJNkx9m5mMiBCJtQ-36" value="" style="endArrow=none;dashed=1;html=1;strokeWidth=2;rounded=0;" edge="1" parent="1">
          <mxGeometry width="50" height="50" relative="1" as="geometry">
            <mxPoint x="240" y="1110" as="sourcePoint" />
            <mxPoint x="840" y="1108" as="targetPoint" />
          </mxGeometry>
        </mxCell>
        <mxCell id="DEhYFJNkx9m5mMiBCJtQ-37" value="" style="endArrow=none;dashed=1;html=1;strokeWidth=2;rounded=0;" edge="1" parent="1">
          <mxGeometry width="50" height="50" relative="1" as="geometry">
            <mxPoint x="240" y="930" as="sourcePoint" />
            <mxPoint x="840" y="930" as="targetPoint" />
          </mxGeometry>
        </mxCell>
        <mxCell id="DEhYFJNkx9m5mMiBCJtQ-38" value="metaclass" style="text;html=1;strokeColor=none;fillColor=none;align=left;verticalAlign=middle;whiteSpace=wrap;rounded=0;" vertex="1" parent="1">
          <mxGeometry x="785" y="840" width="75" height="30" as="geometry" />
        </mxCell>
        <mxCell id="DEhYFJNkx9m5mMiBCJtQ-39" value="class" style="text;html=1;strokeColor=none;fillColor=none;align=left;verticalAlign=middle;whiteSpace=wrap;rounded=0;" vertex="1" parent="1">
          <mxGeometry x="785" y="1010" width="60" height="30" as="geometry" />
        </mxCell>
        <mxCell id="DEhYFJNkx9m5mMiBCJtQ-40" value="instance" style="text;html=1;strokeColor=none;fillColor=none;align=left;verticalAlign=middle;whiteSpace=wrap;rounded=0;" vertex="1" parent="1">
          <mxGeometry x="785" y="1165" width="60" height="30" as="geometry" />
        </mxCell>
      </root>
    </mxGraphModel>
  </diagram>
</mxfile>
